<?xml version="1.0" encoding="utf-8"?>
<!-- Generator: Adobe Illustrator 24.0.1, SVG Export Plug-In . SVG Version: 6.00 Build 0)  -->
<svg version="1.1" id="Capa_1" xmlns="http://www.w3.org/2000/svg" xmlns:xlink="http://www.w3.org/1999/xlink" x="0px" y="0px"
	 viewBox="0 0 512 512" style="enable-background:new 0 0 512 512;" xml:space="preserve">
<style type="text/css">
	.st0{fill:#FFFFFF;}
</style>
<g>
	<g>
		<g>
			<path class="st0" d="M136,266c-5.5,0-10,4.5-10,10c0,5.5,4.5,10,10,10c5.5,0,10-4.5,10-10C146,270.5,141.5,266,136,266z"/>
		</g>
	</g>
	<g>
		<g>
			<path class="st0" d="M90,0H10C4.5,0,0,4.5,0,10v80c0,5.5,4.5,10,10,10s10-4.5,10-10V20h70c5.5,0,10-4.5,10-10S95.5,0,90,0z"/>
		</g>
	</g>
	<g>
		<g>
			<path class="st0" d="M502,0h-80c-5.5,0-10,4.5-10,10s4.5,10,10,10h70v70c0,5.5,4.5,10,10,10s10-4.5,10-10V10
				C512,4.5,507.5,0,502,0z"/>
		</g>
	</g>
	<g>
		<g>
			<path class="st0" d="M90,492H20v-70c0-5.5-4.5-10-10-10s-10,4.5-10,10v80c0,5.5,4.5,10,10,10h80c5.5,0,10-4.5,10-10
				S95.5,492,90,492z"/>
		</g>
	</g>
	<g>
		<g>
			<path class="st0" d="M502,412c-5.5,0-10,4.5-10,10v70h-70c-5.5,0-10,4.5-10,10s4.5,10,10,10h80c5.5,0,10-4.5,10-10v-80
				C512,416.5,507.5,412,502,412z"/>
		</g>
	</g>
	<g>
		<g>
			<path class="st0" d="M273.4,26.9c-11.4-1.2-23.3-1.2-34.8,0c-5.5,0.6-9.5,5.5-8.9,11s5.5,9.5,11,8.9c10.1-1,20.6-1,30.7,0
				c0.3,0,0.7,0.1,1,0.1c5.1,0,9.4-3.8,9.9-9C282.9,32.4,278.9,27.4,273.4,26.9z"/>
		</g>
	</g>
	<g>
		<g>
			<path class="st0" d="M327.5,459.5c-2.1-5.1-8-7.5-13.1-5.3C295.9,462,276.3,466,256,466c-61.4,0-116.1-36.8-139.1-93.8
				c-2.1-5.1-7.9-7.6-13-5.5c-5.1,2.1-7.6,7.9-5.5,13C123.8,442.6,185.2,486,256,486c22.9,0,45.2-4.5,66.2-13.4
				C327.3,470.5,329.6,464.6,327.5,459.5z"/>
		</g>
	</g>
	<g>
		<g>
			<path class="st0" d="M96,266c-5.5,0-10,4.5-10,10v40c0,5.5,4.5,10,10,10s10-4.5,10-10v-40C106,270.5,101.5,266,96,266z"/>
		</g>
	</g>
	<g>
		<g>
			<path class="st0" d="M202.9,44.7c-2.2-5.1-8-7.5-13.1-5.3C126.8,66,86,127.5,86,196v40c0,5.5,4.5,10,10,10s10-4.5,10-10v-40
				c0-60.4,36-114.7,91.6-138.2C202.7,55.6,205.1,49.8,202.9,44.7z"/>
		</g>
	</g>
	<g>
		<g>
			<path class="st0" d="M416,291c-5.5,0-10,4.5-10,10v15c0,44.9-19.9,87.1-54.6,115.7c-4.3,3.5-4.9,9.8-1.4,14.1
				c3.5,4.3,9.8,4.9,14.1,1.4C403.5,414.7,426,366.9,426,316v-15C426,295.5,421.5,291,416,291z"/>
		</g>
	</g>
	<g>
		<g>
			<path class="st0" d="M322.2,39.4c-5.1-2.2-11,0.2-13.1,5.3s0.2,11,5.3,13.1c82.4,34.9,91.5,112.1,91.6,143.7c0,1,0,1.8,0.1,2.5
				v44.5v0.1c0,5.5,4.5,10,10,10s10-4.5,10-10v-45C426,130.7,391.9,68.8,322.2,39.4z"/>
		</g>
	</g>
	<g>
		<g>
			<path class="st0" d="M383.4,169.8c-3.4-16.7-10-32.3-19.6-46.5c-3.1-4.6-9.3-5.8-13.9-2.7c-4.6,3.1-5.8,9.3-2.7,13.9
				c8.1,12,13.7,25.2,16.6,39.3c1,4.7,5.1,8,9.8,8c0.7,0,1.3-0.1,2-0.2C381,180.5,384.5,175.2,383.4,169.8z"/>
		</g>
	</g>
	<g>
		<g>
			<path class="st0" d="M328.7,88.2c-51.4-34.7-120.6-28.1-164.5,15.9c-36.8,36.8-37.5,71.7-38,99.8c-0.3,18.1,0-9.3-0.1,32.1
				c0,5.5,4.5,10,10,10s10-4.5,10-10v-24.9c0.8-30.6-1.1-59.6,32.3-92.9c37.2-37.2,95.7-42.8,139.2-13.5c4.6,3.1,10.8,1.9,13.9-2.7
				C334.4,97.5,333.2,91.3,328.7,88.2z"/>
		</g>
	</g>
	<g>
		<g>
			<path class="st0" d="M331.3,409.9c-3.1-4.6-9.3-5.8-13.9-2.7C299,419.7,278.1,426,257,426.1c-56.6,0.2-111-44.5-111-110.1
				c0-5.5-4.5-10-10-10s-10,4.5-10,10c0,75.9,62.1,130,130.7,130c25.7,0,50.6-7.8,72-22.2C333.2,420.7,334.4,414.5,331.3,409.9z"/>
		</g>
	</g>
	<g>
		<g>
			<path class="st0" d="M376,201c-5.5,0-10,4.5-10,10v105c0,22-6.5,43.2-18.8,61.5c-3.1,4.6-1.9,10.8,2.7,13.9
				c4.6,3.1,10.8,1.9,13.9-2.7C378.3,367.1,386,342,386,316V211C386,205.5,381.5,201,376,201z"/>
		</g>
	</g>
	<g>
		<g>
			<path class="st0" d="M256,386c-38.6,0-70-31.4-70-70V196c0-9.4,1.9-18.6,5.5-27.2c2.2-5.1-0.2-11-5.3-13.1
				c-5.1-2.2-11,0.2-13.1,5.3c-4.7,11.1-7.1,22.9-7.1,35v120c0,49.6,40.3,90,90,90c5.5,0,10-4.5,10-10S261.5,386,256,386z"/>
		</g>
	</g>
	<g>
		<g>
			<path class="st0" d="M336.4,322.3c-5.4-1.1-10.7,2.4-11.8,7.8c-2.7,13.4-9.4,25.6-19.1,35.4c-3.9,3.9-3.9,10.2,0,14.1
				c3.9,3.9,10.2,3.9,14.1,0c12.5-12.5,21-28.3,24.6-45.5C345.3,328.7,341.8,323.4,336.4,322.3z"/>
		</g>
	</g>
	<g>
		<g>
			<path class="st0" d="M256,106c-12.1,0-23.9,2.4-35,7.1c-5.1,2.2-7.5,8-5.3,13.1c2.2,5.1,8,7.5,13.1,5.3
				c8.6-3.7,17.8-5.5,27.2-5.5c38.6,0,70,31.4,70,70v90v0.1c0,5.5,4.5,10,10,10s10-4.5,10-10V286v-90C346,146.4,305.6,106,256,106z"
				/>
		</g>
	</g>
	<g>
		<g>
			<path class="st0" d="M256,146c-27.6,0-50,22.4-50,50v90c0,5.5,4.5,10,10,10s10-4.5,10-10v-90c0-16.5,13.5-30,30-30s30,13.5,30,30
				c0,5.5,4.5,10,10,10s10-4.5,10-10C306,168.4,283.6,146,256,146z"/>
		</g>
	</g>
	<g>
		<g>
			<path class="st0" d="M306,305.9c-0.1-4.3-0.1,2,0-49.9c0-5.5-4.5-10-10-10s-9.9,4.5-9.9,10c-0.1,50-0.2,41.3,0,50.2
				c0.2,10.8,0.2,15.3-2.4,21.5c-4.7,11.1-15.6,18.3-27.6,18.3c-12.1,0-22.9-7.2-27.6-18.3c-2.2-5.1-8-7.5-13.1-5.3
				c-5.1,2.2-7.5,8-5.3,13.1C217.8,354,235.9,366,256,366c20.1,0,38.2-12,46.1-30.5C306.3,325.4,306.2,317.6,306,305.9z"/>
		</g>
	</g>
	<g>
		<g>
			<path class="st0" d="M256,186c-5.5,0-10,4.5-10,10v120c0,5.5,4.5,10,10,10s10-4.5,10-10V196C266,190.5,261.5,186,256,186z"/>
		</g>
	</g>
</g>
</svg>
