<?xml version="1.0" encoding="utf-8"?>
<!-- Generator: Adobe Illustrator 24.0.1, SVG Export Plug-In . SVG Version: 6.00 Build 0)  -->
<svg version="1.1" id="Capa_1" xmlns="http://www.w3.org/2000/svg" xmlns:xlink="http://www.w3.org/1999/xlink" x="0px" y="0px"
	 viewBox="0 0 511 511" style="enable-background:new 0 0 511 511;" xml:space="preserve">
<style type="text/css">
	.st0{fill:#FFFFFF;}
</style>
<path class="st0" d="M489.4,493c-71.4,7.9-128.1-23.7-128.7-24c-1.9-1.1-4.2-1.4-6.3-0.8c-0.9,0.2-90.8,24.3-163.1,8.3
	c-45.1-10-87.7-41.8-118.8-65c-4.2-3.1-8.1-6.1-11.8-8.8c-5.1-3.7-13.1-6.8-20.2-9.5c-3.2-1.2-7.6-2.9-8.5-3.5
	c-0.8-0.6-1.3-1.6-1.3-2.6v-19.4c0.4-15.3,64.7-251.2,74.6-281.2c0.2-0.4,1.2-1,1.9-1.4l127.2-58.1l41.1,53.5c2,2.8,1.8,6.7-0.4,9.2
	l-40.6,45.6c-2.7,3-7.1,3.3-9.9,1L208.1,121c-1.9-1.8-4.7-2.4-7.2-1.9c-2.6,0.5-4.9,2.3-6.1,4.6c-1.4,2.7-13.8,6-26.5,6.1l-4.1-0.4
	c-3.3-0.4-6.5,1.3-8.1,4.3c-1.6,2.9-1.3,6.5,0.7,9.2c3.5,4.6,6.3,8.2,7.8,10.3l8.1,138.2c-5,19.6-9.7,25.2-10.8,26.3
	c-3.4,1.1-5.8,4.2-5.8,8c0,4.6,3.7,8.4,8.4,8.4c9.5,0,17.5-12.5,24-36.8c66.5-49.7,124.5-2.8,129,1.1c21.1,21.2,22.4,35.3,22.5,35.9
	c0.1,4.5,3.8,8.2,8.4,8.2c4.6,0,8.4-3.7,8.4-8.4c0-1.9-0.7-18.4-22.3-42.2c20.4-25.1,43.6-39.5,69.2-42.7
	c44.1-5.4,81.2,24.2,81.6,24.5c3.6,2.9,8.8,2.4,11.8-1.2c2.9-3.6,2.4-8.8-1.2-11.7c-1.7-1.4-42.8-34.4-94-28.2
	c-29.9,3.6-56.8,19.8-80,48.2c-18.8-12.8-72.7-41.7-133-3.9l-7.5-127.1c-0.1-1.4-0.5-2.7-1.2-3.9c7.5-0.9,16.4-2.8,22.8-7.1
	l10.8,9.9c10,8.4,24.7,7.4,33.4-2.4l40.6-45.6c7.5-8.4,8.1-21.1,1.4-30.4l-45.3-59c-2.4-3.1-6.5-4.1-10.1-2.5L100.4,69.8
	c-1.4,0.6-8.5,4-10.8,11C84.9,95,14,347.9,14,367.6V387c0,6.2,2.8,12,7.7,15.8c2.4,1.9,6.1,3.4,12.8,5.9c5.5,2.1,13.1,5,16.3,7.4
	c3.7,2.7,7.6,5.6,11.7,8.7c32.3,24.1,76.5,57.1,125.1,67.9c69.2,15.4,150.5-3.2,167.9-7.6c11.6,6,54.3,25.9,110.2,25.9
	c8.2,0,16.8-0.4,25.5-1.4c4.6-0.5,7.9-4.6,7.4-9.2C498.2,495.8,494,492.4,489.4,493z"/>
<path class="st0" d="M448.5,390.7c-0.5-4.2-4-7.4-8.3-7.4c-4.6,0-8.4,3.7-8.4,8.4c0,5.6,4.1,24.5,57.1,33.3c0.5,0.1,0.9,0.1,1.4,0.1
	c4,0,7.6-2.9,8.2-7c0.8-4.6-2.3-8.9-6.9-9.6C454.7,402.3,449,391.8,448.5,390.7z"/>
<path class="st0" d="M356.2,101.5h25.5v23.7c0,4.6,3.7,8.4,8.4,8.4h66.9c4.6,0,8.4-3.7,8.4-8.4v-23.7h25.1c3.2,0,6.1-1.8,7.5-4.7
	c1.4-2.9,1-6.3-1-8.8L429.9,3c-3.2-4-9.9-4-13.1,0l-67.1,85c-2,2.5-2.4,5.9-1,8.8C350.1,99.7,353,101.5,356.2,101.5z M423.3,21.7
	l49.8,63.1h-16.2c-4.6,0-8.4,3.7-8.4,8.4v23.7h-50.1V93.2c0-4.6-3.7-8.4-8.4-8.4h-16.6L423.3,21.7z"/>
<path class="st0" d="M465.3,150.3c0-4.6-3.7-8.4-8.4-8.4h-66.9c-4.6,0-8.4,3.7-8.4,8.4v25.1c0,4.6,3.7,8.4,8.4,8.4h66.9
	c4.6,0,8.4-3.7,8.4-8.4V150.3z M448.6,167h-50.1v-8.4h50.1V167z"/>
<path class="st0" d="M456.9,192.1h-66.9c-4.6,0-8.4,3.7-8.4,8.4c0,4.6,3.7,8.4,8.4,8.4h66.9c4.6,0,8.4-3.7,8.4-8.4
	C465.3,195.8,461.5,192.1,456.9,192.1z"/>
<path class="st0" d="M288,433.6c-109.5,23.4-156.3-51.5-158.2-54.6c-2.4-3.9-7.5-5.2-11.5-2.8c-4,2.4-5.2,7.5-2.9,11.5
	c0.6,0.9,13.9,22.8,42.3,41.3c19.6,12.8,49.5,25.9,89.9,25.9c13.5,0,28.1-1.4,43.9-4.8c4.5-1,7.4-5.4,6.4-9.9
	C297,435.5,292.5,432.6,288,433.6z"/>
</svg>
