<?xml version="1.0" encoding="utf-8"?>
<!-- Generator: Adobe Illustrator 24.0.1, SVG Export Plug-In . SVG Version: 6.00 Build 0)  -->
<svg version="1.1" id="Capa_1" xmlns="http://www.w3.org/2000/svg" xmlns:xlink="http://www.w3.org/1999/xlink" x="0px" y="0px"
	 viewBox="0 0 496 496" style="enable-background:new 0 0 496 496;" xml:space="preserve">
<style type="text/css">
	.st0{fill:#FFFFFF;}
</style>
<g>
	<path class="st0" d="M248,32h64v16h-64V32z"/>
	<path class="st0" d="M328,32h16v16h-16V32z"/>
	<path class="st0" d="M216,32h16v16h-16V32z"/>
	<path class="st0" d="M256,448h48v16h-48V448z"/>
	<path class="st0" d="M472,240c-2.8,0-5.5,0.6-8,1.5V40c0-22.1-17.9-40-40-40H136c-22.1,0-40,17.9-40,40v104h72c4.4,0,8,3.6,8,8v64
		c0,4.4-3.6,8-8,8H96v23.4L66.8,224H24c-4.4,0-8-3.6-8-8v-64c0-4.4,3.6-8,8-8h56v-16H24c-13.2,0-24,10.8-24,24v64
		c0,13.2,10.8,24,24,24h37.2l50.8,40.6V240h16v160h176.3c1.5,3.9,3.5,7.6,6.1,10.9l4.1,5.1H112V297.2H96V456c0,22.1,17.9,40,40,40
		h328v-46.3c0-4.8,1.4-9.4,4-13.3l21.3-31.9c4.4-6.6,6.7-14.3,6.7-22.2V264C496,250.8,485.2,240,472,240z M136,16h288
		c13.2,0,24,10.8,24,24v24H112V40C112,26.8,122.8,16,136,16z M112,80h336v145.5c-2.5-0.9-5.2-1.5-8-1.5s-5.5,0.6-8,1.5V96H128v32
		h-16V80z M144,240h24c13.2,0,24-10.8,24-24v-64c0-13.2-10.8-24-24-24h-24v-16h272v97.5c-2.5-0.9-5.2-1.5-8-1.5s-5.5,0.6-8,1.5V168
		c0-13.2-10.8-24-24-24s-24,10.8-24,24v92.4c-2-0.9-4.1-1.6-6.3-2.2l-33.7-8.4v-3.8c14.9-10.4,24-27.6,24-45.9v-14
		c0-31.1-24.4-57.1-54.3-58c-15.4-0.4-29.8,5.2-40.7,15.8c-11,10.6-17,24.9-17,40.2v16c0,18.3,9.1,35.5,24,45.9v3.8l-33.7,8.4
		c-17.8,4.5-30.3,20.4-30.3,38.8v39h108.2l8.6,48H144V240z M288,306v4.4c0,1.5,0.1,3.1,0.4,4.6l0.9,5H200v-23
		c0-11,7.5-20.6,18.2-23.3l45.8-11.4v-25.3l-4-2.3c-12.3-7.1-20-20.4-20-34.6v-16c0-10.9,4.3-21.1,12.2-28.7
		c7.8-7.6,18-11.7,29.1-11.3c21.4,0.6,38.8,19.5,38.8,42v14c0,14.2-7.7,27.5-20,34.6l-4,2.3l0,25.3l45.8,11.4
		c3.8,1,7.3,2.9,10.2,5.5v62c-2-1.6-3.5-3.9-4.1-6.6l-8.7-34.9c-2.9-11.6-13.3-19.7-25.2-19.7C299.6,280,288,291.6,288,306z
		 M136,480c-13.2,0-24-10.8-24-24v-24h215.4l3.4,4.2c3.4,4.2,5.3,9.6,5.3,15V480H136z M480,382.3c0,4.8-1.4,9.4-4,13.3l-21.3,31.9
		c-4.4,6.6-6.7,14.3-6.7,22.2V480h-96v-28.8c0-9.1-3.1-17.9-8.8-25L323,400.9c-2.3-2.9-4-6.3-4.7-9.7l-14.1-79
		c-0.1-0.6-0.2-1.2-0.2-1.8V306c0-5.5,4.5-10,10-10c4.6,0,8.6,3.1,9.7,7.5l8.7,34.9c3.2,12.7,14.5,21.6,27.6,21.6h8V168
		c0-4.4,3.6-8,8-8s8,3.6,8,8v160h16v-96c0-4.4,3.6-8,8-8s8,3.6,8,8v96h16v-80c0-4.4,3.6-8,8-8s8,3.6,8,8v80h16v-64c0-4.4,3.6-8,8-8
		s8,3.6,8,8V382.3z"/>
	<path class="st0" d="M32,160h16v16H32V160z"/>
	<path class="st0" d="M64,160h96v16H64V160z"/>
	<path class="st0" d="M32,192h128v16H32V192z"/>
	<path class="st0" d="M160,352h16v16h-16V352z"/>
	<path class="st0" d="M192,352h88v16h-88V352z"/>
</g>
</svg>
